# xmcd CD database file
#
# Track frame offsets:
#	150
#	92405
#	184665
#
# Disc length: 2972 seconds
#
# Revision: 2
# Processed by: cddbd v1.4b41PL1 Copyright (c) Steve Scherf et al.
# Submitted via: Feurio! 1.50.2ß - http://www.feurio.com
#
DISCID=180b9a03
DTITLE=Grateful Dead - Floating Celestial Disc 3
DYEAR=1900
DGENRE=
TTITLE0=Help On The Way-->Slipknot-->Franklin's Tower
TTITLE1=Not Fade Away-->Eyes of the World
TTITLE2=Knockin' on Heaven's Door
EXTD=
EXTT0=
EXTT1=
EXTT2=
PLAYORDER=
